<?xml version="1.0" encoding="UTF-8"?>
<svg width="156px" height="88px" viewBox="0 0 156 88" version="1.1" xmlns="http://www.w3.org/2000/svg" xmlns:xlink="http://www.w3.org/1999/xlink">
    <!-- Generator: Sketch 52.6 (67491) - http://www.bohemiancoding.com/sketch -->
    <title>nativo-logo</title>
    <desc>Created with Sketch.</desc>
    <g id="Page-1" stroke="none" stroke-width="1" fill="none" fill-rule="evenodd">
        <path d="M16.7185804,82.8381386 L16.7185804,64.977301 L19.4993523,64.977301 L19.4993523,86.857379 L16.093155,86.857379 L16.0621991,86.8125221 L3.63721276,68.9966582 L3.63721276,86.857379 L0.856440891,86.857379 L0.856440891,64.977301 L4.26252138,64.977301 L4.29359407,65.022041 L16.7185804,82.8381386 Z M88.5386927,86.857449 L88.5386927,64.9772543 L91.3201655,64.9772543 L91.3201655,86.857449 L88.5386927,86.857449 Z M152.213953,75.9173283 C152.213953,74.7030404 152.007658,73.5369969 151.600793,72.4516724 C151.19054,71.3809496 150.605182,70.4285601 149.861423,69.622072 C149.123389,68.8213078 148.223215,68.1811637 147.186719,67.7212646 C146.146251,67.2556415 144.990721,67.019092 143.753655,67.019092 C142.50771,67.019092 141.352997,67.2556415 140.322225,67.7212646 C139.276851,68.180346 138.377496,68.8196724 137.64682,69.6212543 C136.893366,70.4293778 136.308592,71.3809496 135.907334,72.4516724 C135.493927,73.5289367 135.284361,74.6949802 135.284361,75.9173283 C135.284361,77.1486711 135.493927,78.3147146 135.906516,79.3821665 C136.308592,80.4545247 136.893366,81.4060965 137.646002,82.2127014 C138.38322,83.0208249 139.258161,83.6453159 140.321408,84.1223867 C141.358721,84.5824027 142.514251,84.8155646 143.753655,84.8155646 C144.98418,84.8155646 146.13971,84.5824027 147.187654,84.1223867 C148.228121,83.6510398 149.127477,83.0084426 149.861423,82.2127014 C150.604364,81.4060965 151.189722,80.4545247 151.601611,79.3821665 C152.007658,78.3066544 152.213953,77.1406109 152.213953,75.9173283 Z M154.330867,71.3369105 C154.892746,72.7216309 155.177306,74.2627661 155.177306,75.9173283 C155.177306,77.5686197 154.892746,79.1130257 154.330867,80.5083762 C153.778101,81.8937975 152.978972,83.1210519 151.954624,84.1542771 C150.930511,85.1693961 149.713887,85.9743656 148.336525,86.5483926 C146.938021,87.1233541 145.396886,87.4144562 143.753655,87.4144562 C142.105634,87.4144562 140.561228,87.1233541 139.162607,86.5483926 C137.784661,85.9743656 136.567103,85.1685784 135.544624,84.1550948 C134.534996,83.1365882 133.735166,81.9093339 133.167447,80.5083762 C132.605686,79.1130257 132.321008,77.5686197 132.321008,75.9173283 C132.321008,74.2627661 132.605686,72.7216309 133.167447,71.3360928 C133.735166,69.9254395 134.534996,68.6981852 135.54369,67.6886733 C136.562313,66.6709844 137.779755,65.8628609 139.162607,65.286264 C140.546509,64.7171432 142.091032,64.4291952 143.753655,64.4291952 C145.41067,64.4291952 146.95274,64.7171432 148.336525,65.286264 C149.718793,65.8620432 150.936235,66.6709844 151.954624,67.6886733 C152.978972,68.7136047 153.778101,69.9408591 154.330867,71.3369105 Z M59.4237835,64.9772543 L76.5344376,64.9772543 L76.5344376,67.5752113 L69.3649407,67.5752113 L69.3649407,86.857449 L66.5842857,86.857449 L66.5842857,68.9728981 L67.9790521,67.5781317 L59.4237835,67.5752113 L59.4237835,64.9772543 Z M43.4890904,64.9772543 L43.515841,65.0409183 L52.799916,86.857449 L49.5706928,86.857449 L49.5437087,86.7921497 L42.1378958,68.5791161 L34.4318694,86.857449 L31.2931776,86.857449 L31.3575424,86.7107299 L40.9358734,64.9772543 L43.4890904,64.9772543 Z M113.189765,83.2555405 L120.895792,64.9772076 L124.034483,64.9772076 L123.970002,65.1240435 L114.392605,86.8574023 L111.838571,86.8574023 L111.811586,86.7938552 L102.527745,64.9772076 L105.756851,64.9772076 L105.783835,65.0425069 L113.189765,83.2555405 Z M63.2396263,0.0334575215 L72.8105746,0.0334575215 L91.936164,45.1362806 L101.495875,22.584869 L91.9358836,0.0334575215 L101.506855,0.0334575215 L111.06673,22.584869 L101.506855,45.1362806 L91.9358836,45.1362806 L82.3651923,45.1362806 L74.3955153,26.3423279 L78.1529742,22.584869 L72.8025144,22.584869 L63.2396029,0.0334575215 L53.6796585,22.584869 L63.2396497,45.1362806 L53.668678,45.1362806 L44.1088036,22.584869 L53.668678,0.0334575215 L63.2396263,0.0334575215 Z" id="nativo-logo" fill="#FFFFFF"></path>
    </g>
</svg>